HIERARCHY
ROOT Junyuan_V1:Solving:Hips
{
	OFFSET 0.000000 0.000000 0.000000
	CHANNELS 6 Xposition Yposition Zposition Xrotation Yrotation Zrotation
	JOINT Junyuan_V1:Solving:Spine
	{
		OFFSET 0.000000 -11.180205 2.228564
		CHANNELS 6 Xposition Yposition Zposition Xrotation Yrotation Zrotation
		JOINT Junyuan_V1:Solving:Spine1
		{
			OFFSET 0.000000 -8.682996 1.531049
			CHANNELS 6 Xposition Yposition Zposition Xrotation Yrotation Zrotation
			JOINT Junyuan_V1:Solving:Spine2
			{
				OFFSET 0.000000 -8.783394 0.768450
				CHANNELS 6 Xposition Yposition Zposition Xrotation Yrotation Zrotation
				JOINT Junyuan_V1:Solving:Spine3
				{
					OFFSET 0.000000 -8.816944 0.000000
					CHANNELS 6 Xposition Yposition Zposition Xrotation Yrotation Zrotation
					JOINT Junyuan_V1:Solving:Neck
					{
						OFFSET 0.000000 -11.336071 -1.133605
						CHANNELS 6 Xposition Yposition Zposition Xrotation Yrotation Zrotation
						JOINT Junyuan_V1:Solving:Neck1
						{
							OFFSET 0.000000 -7.643246 -0.668695
							CHANNELS 6 Xposition Yposition Zposition Xrotation Yrotation Zrotation
							JOINT Junyuan_V1:Solving:Head
							{
								OFFSET 0.000000 -7.555870 -1.332303
								CHANNELS 6 Xposition Yposition Zposition Xrotation Yrotation Zrotation
								JOINT Junyuan_V1:Solving:HeadEnd
								{
									OFFSET 0.000000 -9.728081 0.000002
									CHANNELS 6 Xposition Yposition Zposition Xrotation Yrotation Zrotation
									End Site
									{
										OFFSET 0.000000 -9.728081 0.000002
									}
								}
							}
						}
					}
					JOINT Junyuan_V1:Solving:RightShoulder
					{
						OFFSET 0.000000 -8.097195 -5.270916
						CHANNELS 6 Xposition Yposition Zposition Xrotation Yrotation Zrotation
						JOINT Junyuan_V1:Solving:RightArm
						{
							OFFSET -20.762394 -0.000008 0.000000
							CHANNELS 6 Xposition Yposition Zposition Xrotation Yrotation Zrotation
							JOINT Junyuan_V1:Solving:RightForeArm
							{
								OFFSET -29.048946 -0.000008 0.000000
								CHANNELS 6 Xposition Yposition Zposition Xrotation Yrotation Zrotation
								JOINT Junyuan_V1:Solving:RightHand
								{
									OFFSET -22.031235 -0.000008 0.000000
									CHANNELS 6 Xposition Yposition Zposition Xrotation Yrotation Zrotation
									JOINT Junyuan_V1:Solving:RightHandThumb1
									{
										OFFSET -3.579254 2.890213 -2.661497
										CHANNELS 6 Xposition Yposition Zposition Xrotation Yrotation Zrotation
										End Site
										{
											OFFSET -5.229485 0.000000 -5.277840
										}
									}
									JOINT Junyuan_V1:Solving:RightHandMiddle1
									{
										OFFSET -9.544678 -0.000004 0.061184
										CHANNELS 6 Xposition Yposition Zposition Xrotation Yrotation Zrotation
										End Site
										{
											OFFSET -7.429878 -0.000004 0.000000
										}
									}
								}
							}
						}
					}
					JOINT Junyuan_V1:Solving:LeftShoulder
					{
						OFFSET 0.000000 -8.097195 -5.270916
						CHANNELS 6 Xposition Yposition Zposition Xrotation Yrotation Zrotation
						JOINT Junyuan_V1:Solving:LeftArm
						{
							OFFSET 20.762394 -0.000008 0.000000
							CHANNELS 6 Xposition Yposition Zposition Xrotation Yrotation Zrotation
							JOINT Junyuan_V1:Solving:LeftForeArm
							{
								OFFSET 29.048946 -0.000008 0.000000
								CHANNELS 6 Xposition Yposition Zposition Xrotation Yrotation Zrotation
								JOINT Junyuan_V1:Solving:LeftHand
								{
									OFFSET 22.031235 -0.000008 0.000000
									CHANNELS 6 Xposition Yposition Zposition Xrotation Yrotation Zrotation
									JOINT Junyuan_V1:Solving:LeftHandThumb1
									{
										OFFSET 3.579254 2.890213 -2.661497
										CHANNELS 6 Xposition Yposition Zposition Xrotation Yrotation Zrotation
										End Site
										{
											OFFSET 5.229485 0.000000 -5.277840
										}
									}
									JOINT Junyuan_V1:Solving:LeftHandMiddle1
									{
										OFFSET 9.544678 -0.000004 0.061184
										CHANNELS 6 Xposition Yposition Zposition Xrotation Yrotation Zrotation
										End Site
										{
											OFFSET 7.429878 -0.000004 0.000000
										}
									}
								}
							}
						}
					}
				}
			}
		}
	}
	JOINT Junyuan_V1:Solving:RightUpLeg
	{
		OFFSET -10.825166 0.000000 0.000000
		CHANNELS 6 Xposition Yposition Zposition Xrotation Yrotation Zrotation
		JOINT Junyuan_V1:Solving:RightLeg
		{
			OFFSET 0.000000 43.678444 -0.000006
			CHANNELS 6 Xposition Yposition Zposition Xrotation Yrotation Zrotation
			JOINT Junyuan_V1:Solving:RightFoot
			{
				OFFSET 0.000000 36.488441 -0.000006
				CHANNELS 6 Xposition Yposition Zposition Xrotation Yrotation Zrotation
				JOINT Junyuan_V1:Solving:RightForeFoot
				{
					OFFSET 0.000000 3.967834 -0.000000
					CHANNELS 6 Xposition Yposition Zposition Xrotation Yrotation Zrotation
					JOINT Junyuan_V1:Solving:RightToeBase
					{
						OFFSET 0.000000 0.000000 -15.539299
						CHANNELS 6 Xposition Yposition Zposition Xrotation Yrotation Zrotation
						JOINT Junyuan_V1:Solving:RightToeBaseEnd
						{
							OFFSET 0.000000 0.000000 -3.486985
							CHANNELS 6 Xposition Yposition Zposition Xrotation Yrotation Zrotation
							End Site
							{
								OFFSET 0.000000 -3.486992 0.000000
							}
						}
					}
				}
			}
		}
	}
	JOINT Junyuan_V1:Solving:LeftUpLeg
	{
		OFFSET 10.825166 0.000000 0.000000
		CHANNELS 6 Xposition Yposition Zposition Xrotation Yrotation Zrotation
		JOINT Junyuan_V1:Solving:LeftLeg
		{
			OFFSET 0.000000 43.678444 -0.000006
			CHANNELS 6 Xposition Yposition Zposition Xrotation Yrotation Zrotation
			JOINT Junyuan_V1:Solving:LeftFoot
			{
				OFFSET 0.000000 36.488441 -0.000006
				CHANNELS 6 Xposition Yposition Zposition Xrotation Yrotation Zrotation
				JOINT Junyuan_V1:Solving:LeftForeFoot
				{
					OFFSET 0.000000 3.967834 -0.000000
					CHANNELS 6 Xposition Yposition Zposition Xrotation Yrotation Zrotation
					JOINT Junyuan_V1:Solving:LeftToeBase
					{
						OFFSET 0.000000 0.000000 -15.539299
						CHANNELS 6 Xposition Yposition Zposition Xrotation Yrotation Zrotation
						JOINT Junyuan_V1:Solving:LeftToeBaseEnd
						{
							OFFSET 0.000000 0.000000 -3.974441
							CHANNELS 6 Xposition Yposition Zposition Xrotation Yrotation Zrotation
							End Site
							{
								OFFSET 0.000000 -3.974442 0.000000
							}
						}
					}
				}
			}
		}
	}
}
MOTION
Frames: 4
Frame Time: 0.041667
-67.068817 -9.605543 -72.528374 41.678689 -177.628481 2.061430 0.000008 -11.180215 2.228557 18.805806 0.934521 -0.769799 -0.000001 -8.682997 1.531051 17.099746 0.194742 -0.423766 0.000008 -8.783403 0.768436 11.858714 -3.631330 -2.895384 0.000007 -8.816939 -0.000010 -8.329791 -0.176488 -0.794602 0.000017 -11.336078 -1.133612 -35.136692 -6.871018 3.849422 -0.000004 -7.643258 -0.668681 1.590879 2.597808 -3.184297 0.000002 -7.555871 -1.332298 0.601870 0.030903 0.084203 -0.000005 -9.728096 0.000007 0.000007 -0.000000 -0.000000 -0.000001 -8.097191 -5.270916 0.000009 7.093294 25.323179 -20.762390 -0.000014 -0.000016 -78.198993 -22.232616 -81.327609 -29.048943 -0.000014 0.000004 -39.100022 -8.031015 -6.477523 -22.031240 -0.000006 -0.000009 3.259179 -9.011764 19.978609 -3.579250 2.890208 -2.661506 0.000010 -0.000000 0.000005 -9.544693 -0.000005 0.061171 0.000003 0.000001 -0.000009 0.000001 -8.097187 -5.270916 0.000005 -10.500951 -19.995847 20.762413 0.000005 -0.000006 -83.946829 26.893544 83.915964 29.048956 -0.000026 0.000001 -54.819730 6.735250 9.446263 22.031235 -0.000006 -0.000001 0.679684 2.737851 -13.948075 3.579248 2.890212 -2.661497 -0.000000 0.000010 -0.000007 9.544694 -0.000004 0.061182 -0.000001 0.000000 0.000002 -10.825156 -0.000009 -0.000001 -96.694701 16.447388 4.099991 0.000001 43.678444 0.000009 61.897934 0.000003 0.000002 -0.000012 36.488422 -0.000002 -10.756781 13.321581 1.437755 0.000007 3.967819 -0.000007 -0.000000 0.000000 0.000000 0.000012 -0.000000 -15.539301 11.724887 0.000003 -0.000000 -0.000009 -0.000007 -3.486993 0.000003 -0.000002 0.000001 10.825165 0.000001 -0.000011 -99.282202 -15.193100 -17.487680 0.000003 43.678459 0.000007 65.786272 -0.000001 0.000006 -0.000007 36.488422 -0.000016 -11.394987 8.878065 1.565248 -0.000025 3.967827 0.000004 0.000001 0.000001 -0.000000 0.000016 0.000001 -15.539309 1.803821 -0.000001 -0.000000 -0.000013 -0.000008 -3.974436 -0.000001 -0.000000 -0.000000 
-67.254906 -9.322861 -71.988152 40.798322 -177.543664 1.454255 0.000010 -11.180207 2.228576 18.745012 0.927105 -0.675055 0.000005 -8.682987 1.531034 17.019262 0.185988 -0.225973 -0.000017 -8.783390 0.768462 11.517585 -3.392284 -2.384934 0.000012 -8.816940 -0.000006 -8.180243 -0.080614 -0.929926 -0.000001 -11.336084 -1.133589 -35.175280 -6.735236 3.563304 -0.000004 -7.643238 -0.668713 1.210352 2.590843 -3.302663 -0.000002 -7.555881 -1.332312 0.488707 0.009793 0.130502 -0.000002 -9.728065 0.000013 -0.000002 -0.000000 0.000000 0.000005 -8.097214 -5.270906 0.000004 7.115621 24.966324 -20.762388 -0.000010 -0.000003 -79.018247 -22.682572 -81.179886 -29.048946 -0.000013 -0.000013 -39.832366 -7.525195 -6.234188 -22.031239 -0.000003 -0.000010 3.232929 -9.025739 19.801883 -3.579276 2.890206 -2.661507 -0.000001 -0.000003 0.000002 -9.544690 -0.000008 0.061173 0.000000 0.000001 -0.000006 0.000006 -8.097214 -5.270907 0.000000 -10.883221 -19.893935 20.762405 -0.000013 -0.000011 -85.096712 27.505956 84.190571 29.048941 -0.000024 -0.000017 -56.006134 6.392042 9.374550 22.031242 -0.000012 -0.000002 0.619644 2.565255 -13.585001 3.579262 2.890205 -2.661499 0.000004 -0.000005 0.000000 9.544686 0.000002 0.061188 0.000000 -0.000004 0.000001 -10.825158 -0.000006 0.000011 -98.585024 15.600951 4.186593 -0.000009 43.678440 -0.000006 63.133276 0.000003 0.000005 0.000004 36.488430 -0.000000 -10.899683 13.338338 1.376323 -0.000008 3.967827 0.000002 -0.000000 -0.000001 0.000001 -0.000013 0.000012 -15.539289 11.621237 -0.000003 0.000001 -0.000003 -0.000001 -3.486982 -0.000001 -0.000001 0.000001 10.825182 0.000000 0.000005 -100.786258 -15.282738 -17.354607 -0.000003 43.678463 0.000011 66.839350 0.000000 0.000002 -0.000004 36.488426 -0.000015 -11.768545 8.322371 1.486950 0.000001 3.967819 0.000008 -0.000000 0.000000 -0.000000 -0.000017 -0.000015 -15.539302 1.834185 -0.000000 -0.000000 0.000007 -0.000016 -3.974446 -0.000001 0.000001 0.000000 
-67.426422 -9.069571 -71.479813 39.985935 -177.479542 0.928199 -0.000027 -11.180216 2.228567 18.635254 0.895837 -0.597643 -0.000006 -8.683002 1.531052 17.032371 0.179631 -0.074770 -0.000011 -8.783398 0.768450 11.293934 -3.199479 -1.976923 0.000003 -8.816933 0.000013 -8.047963 -0.000122 -1.058847 0.000014 -11.336064 -1.133614 -35.452271 -6.644545 3.346557 -0.000001 -7.643260 -0.668683 1.060295 2.604351 -3.361965 0.000008 -7.555885 -1.332314 0.401856 -0.004840 0.175002 -0.000004 -9.728081 0.000026 -0.000008 0.000000 0.000000 0.000007 -8.097195 -5.270934 0.000008 7.174070 24.969073 -20.762392 -0.000006 0.000014 -79.767621 -22.858990 -81.075889 -29.048950 -0.000010 0.000000 -40.583287 -7.126045 -6.065648 -22.031227 -0.000024 -0.000005 3.241296 -9.139518 19.623022 -3.579251 2.890216 -2.661492 0.000007 -0.000003 0.000004 -9.544685 0.000000 0.061183 0.000002 0.000002 0.000000 0.000007 -8.097191 -5.270935 0.000002 -11.170544 -20.038950 20.762411 -0.000013 -0.000021 -85.994725 27.490395 84.373621 29.048941 -0.000025 -0.000011 -55.835673 6.450156 9.398541 22.031233 -0.000015 0.000006 0.472962 1.878728 -14.133470 3.579253 2.890228 -2.661495 0.000005 -0.000002 -0.000001 9.544687 -0.000006 0.061185 -0.000000 -0.000000 0.000002 -10.825186 -0.000003 -0.000007 -100.306683 14.920919 4.244397 -0.000014 43.678448 0.000010 64.212323 0.000000 0.000002 0.000005 36.488438 -0.000005 -11.077061 13.471466 1.371820 0.000012 3.967827 -0.000002 -0.000001 0.000000 0.000001 -0.000003 0.000001 -15.539303 11.579412 -0.000004 0.000001 0.000001 -0.000009 -3.486982 -0.000002 -0.000004 -0.000001 10.825159 -0.000005 -0.000002 -102.185743 -15.326974 -17.225759 -0.000013 43.678448 0.000007 67.822651 0.000003 0.000003 0.000002 36.488411 -0.000008 -12.126941 7.800878 1.390954 -0.000004 3.967827 -0.000001 -0.000000 0.000001 -0.000000 -0.000003 -0.000006 -15.539302 1.882879 0.000004 -0.000000 -0.000000 -0.000007 -3.974436 0.000001 0.000002 -0.000001 
-67.554810 -8.861270 -70.969467 39.251215 -177.388824 0.570793 0.000007 -11.180192 2.228560 18.331835 0.862296 -0.547089 0.000007 -8.682989 1.531063 17.324432 0.177078 0.016847 -0.000014 -8.783395 0.768458 11.134650 -3.121271 -1.682153 0.000001 -8.816947 0.000001 -7.956724 0.048364 -1.149140 -0.000005 -11.336061 -1.133602 -35.640617 -6.750695 3.468342 -0.000002 -7.643233 -0.668703 0.832744 2.775366 -3.712775 -0.000009 -7.555864 -1.332302 0.304195 -0.021215 0.220925 0.000002 -9.728088 0.000021 0.000001 -0.000000 0.000000 -0.000015 -8.097195 -5.270927 0.000007 7.249181 25.151475 -20.762392 -0.000009 0.000000 -80.477257 -22.909325 -81.001413 -29.048935 -0.000013 -0.000013 -41.283579 -6.823959 -5.955808 -22.031231 -0.000012 -0.000000 3.267089 -9.276881 19.499237 -3.579259 2.890215 -2.661478 0.000008 -0.000000 0.000003 -9.544684 -0.000000 0.061201 0.000003 0.000004 0.000002 -0.000012 -8.097195 -5.270927 0.000002 -11.400621 -20.266700 20.762405 -0.000025 -0.000006 -86.729325 27.242852 84.510484 29.048948 -0.000017 -0.000000 -55.190664 6.655554 9.464200 22.031235 -0.000024 0.000004 0.273140 1.016754 -15.038658 3.579265 2.890217 -2.661486 0.000005 -0.000002 -0.000006 9.544687 0.000006 0.061189 0.000002 0.000000 0.000002 -10.825169 0.000005 0.000003 -101.856917 14.463754 4.233927 0.000001 43.678452 0.000013 65.231278 0.000002 0.000004 0.000005 36.488434 -0.000001 -11.375247 13.707701 1.349959 0.000023 3.967834 -0.000003 0.000000 -0.000001 -0.000000 0.000006 -0.000007 -15.539299 11.664016 -0.000002 0.000000 0.000007 -0.000008 -3.486982 0.000001 -0.000000 -0.000001 10.825164 0.000008 -0.000006 -103.529473 -15.191217 -17.153754 0.000003 43.678463 0.000003 68.858142 0.000003 0.000004 0.000006 36.488415 -0.000013 -12.556049 7.295966 1.380423 -0.000009 3.967834 0.000008 -0.000001 -0.000000 0.000000 -0.000003 -0.000026 -15.539299 1.985402 0.000001 0.000002 0.000002 -0.000008 -3.974441 -0.000001 -0.000001 0.000000 
